<svg xmlns="http://www.w3.org/2000/svg" id="Outlines" viewBox="0 0 24 24"><defs><style>.cls-1{fill:#1b1b1b;stroke-width:0}</style></defs><g id="annotation"><path d="m14,16.75c-.41,0-.75-.34-.75-.75v-6c0-.69-.56-1.25-1.25-1.25s-1.25.56-1.25,1.25v6c0,.41-.34.75-.75.75s-.75-.34-.75-.75v-6c0-1.52,1.23-2.75,2.75-2.75s2.75,1.23,2.75,2.75v6c0,.41-.34.75-.75.75Z" class="cls-1"/><path d="m14,13.75h-4c-.41,0-.75-.34-.75-.75s.34-.75.75-.75h4c.41,0,.75.34.75.75s-.34.75-.75.75Z" class="cls-1"/><path d="m12,21.75c-7.65,0-9.75-2.1-9.75-9.75S4.35,2.25,12,2.25s9.75,2.1,9.75,9.75-2.1,9.75-9.75,9.75Zm0-18c-6.79,0-8.25,1.46-8.25,8.25s1.46,8.25,8.25,8.25,8.25-1.46,8.25-8.25-1.46-8.25-8.25-8.25Z" class="cls-1"/></g></svg>