<?xml version="1.0" encoding="UTF-8"?>
<svg id="Outlines" xmlns="http://www.w3.org/2000/svg" viewBox="0 0 24 24">
  <defs>
    <style>
      .cls-1 {
        fill: #1b1b1b;
        stroke-width: 0px;
      }
    </style>
  </defs>
  <g id="arrow-up-right">
    <path class="cls-1" d="m7,17.75c-.19,0-.38-.07-.53-.22-.29-.29-.29-.77,0-1.06l10-10c.29-.29.77-.29,1.06,0s.29.77,0,1.06l-10,10c-.15.15-.34.22-.53.22Z"/>
    <path class="cls-1" d="m17,16.75c-.41,0-.75-.34-.75-.75V7.75h-8.25c-.41,0-.75-.34-.75-.75s.34-.75.75-.75h9c.41,0,.75.34.75.75v9c0,.41-.34.75-.75.75Z"/>
  </g>
</svg>