<?xml version="1.0" encoding="UTF-8"?>
<svg id="Outlines" xmlns="http://www.w3.org/2000/svg" viewBox="0 0 24 24">
  <defs>
    <style>
      .cls-1 {
        fill: #1b1b1b;
        stroke-width: 0px;
      }
    </style>
  </defs>
  <g id="attribute">
    <path class="cls-1" d="m18,19.5c-.29,0-.56-.17-.69-.45l-5.31-11.96-5.31,11.96c-.17.38-.62.55-.99.38-.38-.17-.55-.61-.38-.99l6-13.5c.24-.54,1.13-.54,1.37,0l6,13.5c.17.38,0,.82-.38.99-.1.04-.2.06-.3.06Z"/>
    <path class="cls-1" d="m16.65,16.5H7.35c-.41,0-.75-.34-.75-.75s.34-.75.75-.75h9.3c.41,0,.75.34.75.75s-.34.75-.75.75Z"/>
  </g>
</svg>