<?xml version="1.0" encoding="UTF-8"?>
<svg id="Outlines" xmlns="http://www.w3.org/2000/svg" viewBox="0 0 24 24">
  <defs>
    <style>
      .cls-1 {
        fill: #1b1b1b;
        stroke-width: 0px;
      }
    </style>
  </defs>
  <g id="BPMN">
    <path class="cls-1" d="m19.37,9H4.37c-.41,0-.75-.34-.75-.75v-3.75c0-.43.2-.83.56-1.12.31-.25.71-.38,1.13-.38h13.12c.42,0,.82.14,1.13.38.35.28.56.69.56,1.12v3.75c0,.41-.34.75-.75.75Zm-14.25-.75h0,0Zm0-.75h13.5v-3s-.1,0-.19,0H5.31c-.09,0-.16.03-.19.06v2.94Z"/>
    <path class="cls-1" d="m6.03,21.01c-.67,0-1.32-.18-1.81-.51-.58-.39-.92-.95-.92-1.55v-4.58c0-.6.33-1.17.91-1.55.49-.33,1.14-.51,1.81-.51h2.85s0,0,0,0c.41,0,.75.33.75.75,0,.42-.33.75-.75.75h-2.85c-.38.01-.74.1-.98.27-.18.12-.24.24-.24.3v4.58c0,.07.08.19.25.3.25.16.61.26.98.26h11.85c.38-.01.74-.11.98-.27.17-.11.24-.23.24-.3v-4.58c0-.07-.07-.18-.25-.3-.25-.17-.61-.26-.98-.26h-2.86c-.41,0-.75-.34-.75-.75s.34-.75.75-.75h2.86c.67,0,1.32.18,1.81.51.58.38.92.95.92,1.55v4.58c0,.6-.33,1.17-.91,1.55-.49.33-1.14.51-1.81.51H6.03Z"/>
    <path class="cls-1" d="m11.88,18.3c-.18,0-.35-.06-.49-.19l-1.8-1.57c-.31-.27-.34-.75-.07-1.06.27-.31.75-.34,1.06-.07l.56.49v-4.65c0-.42.33-.75.75-.75h0c.41,0,.75.33.75.75v6.3c0,.29-.17.56-.43.68-.1.04-.21.07-.31.07Z"/>
    <path class="cls-1" d="m11.88,18.3c-.21,0-.42-.09-.56-.26-.27-.31-.24-.79.07-1.06l1.8-1.58c.31-.27.79-.24,1.06.07.27.31.24.79-.07,1.06l-1.8,1.58c-.14.12-.32.19-.49.19Z"/>
  </g>
</svg>