<?xml version="1.0" encoding="UTF-8"?>
<svg id="Outlines" xmlns="http://www.w3.org/2000/svg" viewBox="0 0 24 24">
  <defs>
    <style>
      .cls-1 {
        fill: #1b1b1b;
        stroke-width: 0px;
      }
    </style>
  </defs>
  <g id="call">
    <path class="cls-1" d="m4.5,14.25c-.59,0-1.17-.24-1.59-.66s-.66-.99-.66-1.59.24-1.17.66-1.59c.84-.84,2.34-.84,3.18,0,.43.43.66.99.66,1.59s-.23,1.17-.66,1.59c-.43.43-.99.66-1.59.66Zm0-3c-.2,0-.39.08-.53.22s-.22.33-.22.53.08.39.22.53c.28.28.78.28,1.06,0,.14-.14.22-.33.22-.53s-.08-.39-.22-.53-.33-.22-.53-.22Z"/>
    <path class="cls-1" d="m15,12.75h-6c-.41,0-.75-.34-.75-.75s.34-.75.75-.75h6c.41,0,.75.34.75.75s-.34.75-.75.75Z"/>
    <path class="cls-1" d="m12.75,15.75c-.19,0-.38-.07-.53-.22-.29-.29-.29-.77,0-1.06l2.47-2.47-2.47-2.47c-.29-.29-.29-.77,0-1.06s.77-.29,1.06,0l3,3c.29.29.29.77,0,1.06l-3,3c-.15.15-.34.22-.53.22Z"/>
    <path class="cls-1" d="m20.25,14.25c-.59,0-1.17-.24-1.59-.66s-.66-.99-.66-1.59.24-1.17.66-1.59c.84-.84,2.34-.84,3.18,0,.43.43.66.99.66,1.59s-.23,1.17-.66,1.59c-.43.43-.99.66-1.59.66Zm0-3c-.2,0-.39.08-.53.22s-.22.33-.22.53.08.39.22.53c.28.28.78.28,1.06,0,.14-.14.22-.33.22-.53s-.08-.39-.22-.53-.33-.22-.53-.22Z"/>
  </g>
</svg>