<?xml version="1.0" encoding="UTF-8"?>
<svg id="Outlines" xmlns="http://www.w3.org/2000/svg" viewBox="0 0 24 24">
  <defs>
    <style>
      .cls-1 {
        fill: #1b1b1b;
        stroke-width: 0px;
      }
    </style>
  </defs>
  <g id="checklist">
    <path class="cls-1" d="m9.61,20.75h-2.61c-1.52,0-2.75-1.23-2.75-2.75V6c0-1.52,1.23-2.75,2.75-2.75h8c1.52,0,2.75,1.23,2.75,2.75v8c0,.41-.34.75-.75.75s-.75-.34-.75-.75V6c0-.69-.56-1.25-1.25-1.25H7c-.69,0-1.25.56-1.25,1.25v12c0,.69.56,1.25,1.25,1.25h2.61c.41,0,.75.34.75.75s-.34.75-.75.75Z"/>
    <path class="cls-1" d="m16,21.75c-.19,0-.38-.07-.53-.22l-2-2c-.29-.29-.29-.77,0-1.06s.77-.29,1.06,0l1.47,1.47,3.47-3.47c.29-.29.77-.29,1.06,0s.29.77,0,1.06l-4,4c-.15.15-.34.22-.53.22Z"/>
    <path class="cls-1" d="m13,8.75h-4c-.41,0-.75-.34-.75-.75s.34-.75.75-.75h4c.41,0,.75.34.75.75s-.34.75-.75.75Z"/>
    <path class="cls-1" d="m11,12.75h-2c-.41,0-.75-.34-.75-.75s.34-.75.75-.75h2c.41,0,.75.34.75.75s-.34.75-.75.75Z"/>
  </g>
</svg>