<?xml version="1.0" encoding="UTF-8"?>
<svg id="Outlines" xmlns="http://www.w3.org/2000/svg" viewBox="0 0 24 24">
  <defs>
    <style>
      .cls-1 {
        fill: #1b1b1b;
        stroke-width: 0px;
      }
    </style>
  </defs>
  <g id="clock">
    <path class="cls-1" d="m12,21.75c-5.38,0-9.75-4.37-9.75-9.75S6.62,2.25,12,2.25s9.75,4.37,9.75,9.75-4.37,9.75-9.75,9.75Zm0-18C7.45,3.75,3.75,7.45,3.75,12s3.7,8.25,8.25,8.25,8.25-3.7,8.25-8.25S16.55,3.75,12,3.75Z"/>
    <path class="cls-1" d="m15,15.75c-.19,0-.38-.07-.53-.22l-3-3c-.14-.14-.22-.33-.22-.53v-5c0-.41.34-.75.75-.75s.75.34.75.75v4.69l2.78,2.78c.29.29.29.77,0,1.06-.15.15-.34.22-.53.22Z"/>
  </g>
</svg>