<?xml version="1.0" encoding="UTF-8"?>
<svg id="Outlines" xmlns="http://www.w3.org/2000/svg" viewBox="0 0 24 24">
  <defs>
    <style>
      .cls-1 {
        fill: #1b1b1b;
        stroke-width: 0px;
      }
    </style>
  </defs>
  <g id="close">
    <path class="cls-1" d="m6,18.75c-.19,0-.38-.07-.53-.22-.29-.29-.29-.77,0-1.06l12-12c.29-.29.77-.29,1.06,0s.29.77,0,1.06l-12,12c-.15.15-.34.22-.53.22Z"/>
    <path class="cls-1" d="m18,18.75c-.19,0-.38-.07-.53-.22L5.47,6.53c-.29-.29-.29-.77,0-1.06s.77-.29,1.06,0l12,12c.29.29.29.77,0,1.06-.15.15-.34.22-.53.22Z"/>
  </g>
</svg>