<svg xmlns="http://www.w3.org/2000/svg" id="Outlines" viewBox="0 0 24 24"><defs><style>.cls-1{fill:#1b1b1b;stroke-width:0}</style></defs><g id="database"><path d="m12,9.75c-4.35,0-8.75-1.29-8.75-3.75s4.4-3.75,8.75-3.75,8.75,1.29,8.75,3.75-4.4,3.75-8.75,3.75Zm0-6c-4.36,0-7.25,1.35-7.25,2.25s2.89,2.25,7.25,2.25,7.25-1.35,7.25-2.25-2.89-2.25-7.25-2.25Z" class="cls-1"/><path d="m12,15.75c-4.35,0-8.75-1.29-8.75-3.75v-6c0-.41.34-.75.75-.75s.75.34.75.75v6c0,.9,2.89,2.25,7.25,2.25s7.25-1.35,7.25-2.25v-6c0-.41.34-.75.75-.75s.75.34.75.75v6c0,2.46-4.4,3.75-8.75,3.75Z" class="cls-1"/><path d="m12,21.75c-4.35,0-8.75-1.29-8.75-3.75v-6c0-.41.34-.75.75-.75s.75.34.75.75v6c0,.9,2.89,2.25,7.25,2.25s7.25-1.35,7.25-2.25v-6c0-.41.34-.75.75-.75s.75.34.75.75v6c0,2.46-4.4,3.75-8.75,3.75Z" class="cls-1"/></g></svg>