<svg xmlns="http://www.w3.org/2000/svg" id="Outlines" viewBox="0 0 24 24"><defs><style>.cls-1{fill:#1b1b1b;stroke-width:0}</style></defs><g id="data-class"><path d="m13,20.75h-2c-3.17,0-5.75-2.58-5.75-5.75v-6c0-3.17,2.58-5.75,5.75-5.75h2c3.17,0,5.75,2.58,5.75,5.75,0,.41-.34.75-.75.75s-.75-.34-.75-.75c0-2.34-1.91-4.25-4.25-4.25h-2c-2.34,0-4.25,1.91-4.25,4.25v6c0,2.34,1.91,4.25,4.25,4.25h2c2.34,0,4.25-1.91,4.25-4.25,0-.41.34-.75.75-.75s.75.34.75.75c0,3.17-2.58,5.75-5.75,5.75Z" class="cls-1"/></g></svg>