<?xml version="1.0" encoding="UTF-8"?>
<svg id="Outlines" xmlns="http://www.w3.org/2000/svg" viewBox="0 0 24 24">
  <defs>
    <style>
      .cls-1 {
        fill: #1b1b1b;
        stroke-width: 0px;
      }
    </style>
  </defs>
  <g id="download">
    <path class="cls-1" d="m18,21.75H6c-1.52,0-2.75-1.23-2.75-2.75v-2c0-.41.34-.75.75-.75s.75.34.75.75v2c0,.69.56,1.25,1.25,1.25h12c.69,0,1.25-.56,1.25-1.25v-2c0-.41.34-.75.75-.75s.75.34.75.75v2c0,1.52-1.23,2.75-2.75,2.75Z"/>
    <path class="cls-1" d="m12,16.75c-.19,0-.38-.07-.53-.22l-5-5c-.29-.29-.29-.77,0-1.06s.77-.29,1.06,0l4.47,4.47,4.47-4.47c.29-.29.77-.29,1.06,0s.29.77,0,1.06l-5,5c-.15.15-.34.22-.53.22Z"/>
    <path class="cls-1" d="m12,16.75c-.41,0-.75-.34-.75-.75V4c0-.41.34-.75.75-.75s.75.34.75.75v12c0,.41-.34.75-.75.75Z"/>
  </g>
</svg>