<?xml version="1.0" encoding="UTF-8"?>
<svg id="Outlines" xmlns="http://www.w3.org/2000/svg" viewBox="0 0 24 24">
  <defs>
    <style>
      .cls-1 {
        fill: #1b1b1b;
        stroke-width: 0px;
      }
    </style>
  </defs>
  <g id="e-mail">
    <path class="cls-1" d="m19,19.75H5c-1.52,0-2.75-1.23-2.75-2.75V7c0-1.52,1.23-2.75,2.75-2.75h14c1.52,0,2.75,1.23,2.75,2.75v10c0,1.52-1.23,2.75-2.75,2.75ZM5,5.75c-.69,0-1.25.56-1.25,1.25v10c0,.69.56,1.25,1.25,1.25h14c.69,0,1.25-.56,1.25-1.25V7c0-.69-.56-1.25-1.25-1.25H5Z"/>
    <path class="cls-1" d="m12,13.75c-.15,0-.29-.04-.42-.13L2.58,7.62c-.34-.23-.44-.7-.21-1.04s.7-.44,1.04-.21l8.58,5.72,8.58-5.72c.34-.23.81-.14,1.04.21s.14.81-.21,1.04l-9,6c-.13.08-.27.13-.42.13Z"/>
  </g>
</svg>