<svg xmlns="http://www.w3.org/2000/svg" id="Outlines" viewBox="0 0 24 24"><defs><style>.cls-1{fill:#1b1b1b;stroke-width:0}</style></defs><g id="edit-dots"><path d="m8.7,20.29c-.39,0-.76-.15-1.03-.43-.28-.28-.43-.64-.43-1.03s.15-.76.43-1.03c.55-.55,1.52-.55,2.07,0,.27.27.43.65.43,1.03s-.16.76-.43,1.03c-.28.28-.64.43-1.03.43Z" class="cls-1"/><path d="m8.7,13.46c-.39,0-.76-.15-1.03-.43-.28-.28-.43-.65-.43-1.04s.15-.76.43-1.03c.56-.55,1.52-.55,2.07,0,.27.27.43.65.43,1.03s-.16.76-.43,1.03c-.28.28-.64.43-1.03.43Z" class="cls-1"/><path d="m8.7,6.64c-.39,0-.76-.15-1.03-.43-.28-.28-.43-.65-.43-1.04s.15-.76.43-1.03c.56-.55,1.52-.55,2.07,0,.27.27.43.65.43,1.03s-.16.76-.43,1.03-.65.43-1.03.43Z" class="cls-1"/><path d="m15.3,20.29c-.39,0-.76-.15-1.03-.43-.27-.27-.43-.65-.43-1.03s.16-.76.43-1.03c.55-.55,1.51-.55,2.07,0,.28.28.43.65.43,1.04s-.15.76-.43,1.03c-.28.28-.64.43-1.03.43Z" class="cls-1"/><path d="m15.3,13.46c-.39,0-.76-.15-1.03-.43-.27-.27-.43-.65-.43-1.03s.16-.76.43-1.03c.55-.55,1.51-.55,2.07,0,.28.28.43.64.43,1.03s-.15.76-.43,1.03c-.28.28-.64.43-1.03.43Z" class="cls-1"/><path d="m15.3,6.64c-.38,0-.76-.16-1.03-.43-.27-.27-.43-.65-.43-1.03s.16-.76.43-1.03c.55-.55,1.51-.55,2.07,0,.28.28.43.64.43,1.03s-.15.76-.43,1.03c-.28.28-.65.43-1.03.43Z" class="cls-1"/></g></svg>