<svg xmlns="http://www.w3.org/2000/svg" id="Outlines" viewBox="0 0 24 24"><defs><style>.cls-1{fill:#1b1b1b;stroke-width:0}</style></defs><g id="end-page"><path d="m17.97,20.5H6.3c-.65,0-1.25-.25-1.71-.71-.45-.45-.71-1.07-.71-1.71V6.42c0-.64.26-1.26.71-1.71.46-.46,1.06-.71,1.71-.71h11.67c.65,0,1.25.25,1.71.71.45.45.71,1.07.71,1.71v11.67c0,.64-.26,1.26-.71,1.71-.46.46-1.06.71-1.71.71ZM6.3,5.5c-.25,0-.48.1-.65.27-.17.17-.27.41-.27.65v11.67c0,.24.1.48.27.65s.4.27.65.27h11.67c.25,0,.48-.1.65-.27s.27-.41.27-.65V6.42c0-.24-.1-.48-.27-.65-.17-.17-.4-.27-.65-.27H6.3Z" class="cls-1"/><path d="m19.64,11.33H4.64c-.41,0-.75-.34-.75-.75s.34-.75.75-.75h15c.41,0,.75.34.75.75s-.34.75-.75.75Z" class="cls-1"/><path d="m9.64,10.5c-.41,0-.75-.34-.75-.75v-5c0-.41.34-.75.75-.75s.75.34.75.75v5c0,.41-.34.75-.75.75Z" class="cls-1"/></g></svg>