<?xml version="1.0" encoding="UTF-8"?>
<svg id="Outlines" xmlns="http://www.w3.org/2000/svg" viewBox="0 0 24 24">
  <defs>
    <style>
      .cls-1 {
        fill: #1b1b1b;
        stroke-width: 0px;
      }
    </style>
  </defs>
  <g id="error">
    <path class="cls-1" d="m11,21.75c-.08,0-.16-.01-.23-.04-.31-.1-.52-.39-.52-.71v-6.25h-5.25c-.28,0-.54-.16-.67-.41s-.1-.55.06-.78L12.39,2.56c.19-.26.53-.37.84-.27s.52.39.52.71v6.25h5.25c.28,0,.54.16.67.41s.1.55-.06.78l-8,11c-.14.2-.37.31-.61.31Zm-4.53-8.5h4.53c.41,0,.75.34.75.75v4.69l5.78-7.94h-4.53c-.41,0-.75-.34-.75-.75v-4.69l-5.78,7.94Z"/>
  </g>
</svg>