<svg xmlns="http://www.w3.org/2000/svg" id="Outlines" viewBox="0 0 24 24"><defs><style>.cls-1{fill:#1b1b1b;stroke-width:0}</style></defs><g id="event-start"><path d="m20,17.75H4c-.96,0-1.75-.79-1.75-1.75V4c0-.96.79-1.75,1.75-1.75h16c.96,0,1.75.79,1.75,1.75v12c0,.96-.79,1.75-1.75,1.75ZM4,3.75c-.14,0-.25.11-.25.25v12c0,.14.11.25.25.25h16c.14,0,.25-.11.25-.25V4c0-.14-.11-.25-.25-.25H4Z" class="cls-1"/><path d="m21,13.75H3c-.41,0-.75-.34-.75-.75s.34-.75.75-.75h18c.41,0,.75.34.75.75s-.34.75-.75.75Z" class="cls-1"/><path d="m16,21.75H8c-.41,0-.75-.34-.75-.75s.34-.75.75-.75h8c.41,0,.75.34.75.75s-.34.75-.75.75Z" class="cls-1"/><path d="m9.5,21.75s-.06,0-.09,0c-.41-.05-.7-.43-.65-.84l.5-4c.05-.41.43-.7.84-.65.41.05.7.43.65.84l-.5,4c-.05.38-.37.66-.74.66Z" class="cls-1"/><path d="m14.5,21.75c-.37,0-.7-.28-.74-.66l-.5-4c-.05-.41.24-.79.65-.84.41-.05.79.24.84.65l.5,4c.05.41-.24.79-.65.84-.03,0-.06,0-.09,0Z" class="cls-1"/></g></svg>