<?xml version="1.0" encoding="UTF-8"?>
<svg id="Outlines" xmlns="http://www.w3.org/2000/svg" viewBox="0 0 24 24">
  <defs>
    <style>
      .cls-1 {
        fill: #1b1b1b;
        stroke-width: 0px;
      }
    </style>
  </defs>
  <g id="exit-end">
    <path class="cls-1" d="m16,20.75H6c-1.52,0-2.75-1.23-2.75-2.75v-10c0-1.52,1.23-2.75,2.75-2.75h6c.41,0,.75.34.75.75s-.34.75-.75.75h-6c-.69,0-1.25.56-1.25,1.25v10c0,.69.56,1.25,1.25,1.25h10c.69,0,1.25-.56,1.25-1.25v-6c0-.41.34-.75.75-.75s.75.34.75.75v6c0,1.52-1.23,2.75-2.75,2.75Z"/>
    <path class="cls-1" d="m11,13.75c-.19,0-.38-.07-.53-.22-.29-.29-.29-.77,0-1.06L19.47,3.47c.29-.29.77-.29,1.06,0s.29.77,0,1.06l-9,9c-.15.15-.34.22-.53.22Z"/>
    <path class="cls-1" d="m20,9.75c-.41,0-.75-.34-.75-.75v-4.25h-4.25c-.41,0-.75-.34-.75-.75s.34-.75.75-.75h5c.41,0,.75.34.75.75v5c0,.41-.34.75-.75.75Z"/>
  </g>
</svg>