<svg xmlns="http://www.w3.org/2000/svg" id="Outlines" viewBox="0 0 24 24"><defs><style>.cls-1{fill:#1b1b1b;stroke-width:0}</style></defs><g id="file-import"><path d="m19,8.75h-4c-.96,0-1.75-.79-1.75-1.75V3c0-.41.34-.75.75-.75s.75.34.75.75v4c0,.14.11.25.25.25h4c.41,0,.75.34.75.75s-.34.75-.75.75Z" class="cls-1"/><path d="m6,22.75c-.19,0-.38-.07-.53-.22-.29-.29-.29-.77,0-1.06l1.72-1.72H2c-.41,0-.75-.34-.75-.75s.34-.75.75-.75h5.19l-1.72-1.72c-.29-.29-.29-.77,0-1.06s.77-.29,1.06,0l3,3c.07.07.13.15.16.24.04.09.06.19.06.29s-.02.2-.06.29c-.04.09-.09.17-.16.24l-3,3c-.15.15-.34.22-.53.22Zm11-1h-5.5c-.41,0-.75-.34-.75-.75s.34-.75.75-.75h5.5c.69,0,1.25-.56,1.25-1.25v-10.69l-4.56-4.56h-6.69c-.69,0-1.25.56-1.25,1.25v8c0,.41-.34.75-.75.75s-.75-.34-.75-.75V5c0-1.52,1.23-2.75,2.75-2.75h7c.2,0,.39.08.53.22l5,5c.14.14.22.33.22.53v11c0,1.52-1.23,2.75-2.75,2.75Z" class="cls-1"/></g></svg>