<svg xmlns="http://www.w3.org/2000/svg" id="Outlines" viewBox="0 0 24 24"><defs><style>.cls-1{fill:#1b1b1b;stroke-width:0}</style></defs><g id="folder-open"><path d="m5,19.75h-.02c-1.51-.01-2.73-1.24-2.73-2.75V6c0-1.52,1.23-2.75,2.75-2.75h4c.2,0,.39.08.53.22l2.78,2.78h6.69c1.52,0,2.75,1.23,2.75,2.75v1.42c.59.28,1,.88,1,1.58,0,.09,0,.19-.02.28l-1,5.23c-.25,1.29-1.38,2.23-2.7,2.23H5Zm1.08-1.5h12.94c.6,0,1.12-.43,1.23-1.02l1-5.21c0-.16-.11-.27-.25-.27h-12.31c-.1,0-.2.06-.23.16l-2.38,6.34Zm-1.08-13.5c-.69,0-1.25.56-1.25,1.25v11c0,.52.32.96.77,1.15l2.54-6.77c.25-.68.91-1.14,1.64-1.14h11.56v-1.25c0-.69-.56-1.25-1.25-1.25h-7c-.2,0-.39-.08-.53-.22l-2.78-2.78h-3.69Z" class="cls-1"/></g></svg>