<svg xmlns="http://www.w3.org/2000/svg" id="Outlines" viewBox="0 0 24 24"><defs><style>.cls-1{fill:#1b1b1b;stroke-width:0}</style></defs><g id="folders"><path d="m19,17.75h-10c-1.52,0-2.75-1.23-2.75-2.75V6c0-1.52,1.23-2.75,2.75-2.75h3c.2,0,.39.08.53.22l1.78,1.78h4.69c1.52,0,2.75,1.23,2.75,2.75v7c0,1.52-1.23,2.75-2.75,2.75ZM9,4.75c-.69,0-1.25.56-1.25,1.25v9c0,.69.56,1.25,1.25,1.25h10c.69,0,1.25-.56,1.25-1.25v-7c0-.69-.56-1.25-1.25-1.25h-5c-.2,0-.39-.08-.53-.22l-1.78-1.78h-2.69Z" class="cls-1"/><path d="m15,21.75H5c-1.52,0-2.75-1.23-2.75-2.75v-9c0-1.52,1.23-2.75,2.75-2.75h2c.41,0,.75.34.75.75s-.34.75-.75.75h-2c-.69,0-1.25.56-1.25,1.25v9c0,.69.56,1.25,1.25,1.25h10c.69,0,1.25-.56,1.25-1.25v-2c0-.41.34-.75.75-.75s.75.34.75.75v2c0,1.52-1.23,2.75-2.75,2.75Z" class="cls-1"/></g></svg>