<?xml version="1.0" encoding="UTF-8"?>
<svg id="Outlines" xmlns="http://www.w3.org/2000/svg" viewBox="0 0 24 24">
  <defs>
    <style>
      .cls-1 {
        fill: #1b1b1b;
        stroke-width: 0px;
      }
    </style>
  </defs>
  <g id="function">
    <path class="cls-1" d="m8.75,21.75c-.74,0-1.43-.29-1.95-.81-.52-.52-.8-1.21-.8-1.94,0-.41.34-.75.75-.75s.75.34.75.75c0,.33.13.65.37.88.24.24.55.37.88.37.88,0,1.26-2.41,1.67-4.96.17-1.04.35-2.21.6-3.44.24-1.19.42-2.35.59-3.38.58-3.61.99-6.22,3.15-6.22.73,0,1.42.29,1.94.81.52.52.81,1.21.81,1.94,0,.41-.34.75-.75.75s-.75-.34-.75-.75c0-.33-.13-.65-.37-.88-.24-.24-.55-.37-.88-.37-.88,0-1.26,2.41-1.67,4.96-.17,1.04-.35,2.21-.6,3.44-.24,1.19-.42,2.35-.59,3.38-.58,3.61-.99,6.22-3.15,6.22Z"/>
    <path class="cls-1" d="m16.03,12.75H7.5c-.41,0-.75-.34-.75-.75s.34-.75.75-.75h8.53c.41,0,.75.34.75.75s-.34.75-.75.75Z"/>
  </g>
</svg>