<?xml version="1.0" encoding="UTF-8"?>
<svg id="Outlines" xmlns="http://www.w3.org/2000/svg" viewBox="0 0 24 24">
  <defs>
    <style>
      .cls-1 {
        fill: #1b1b1b;
        stroke-width: 0px;
      }
    </style>
  </defs>
  <g id="home">
    <path class="cls-1" d="m21,12.75h-2c-.41,0-.75-.34-.75-.75s.34-.75.75-.75h.19l-7.19-7.19-7.19,7.19h.19c.41,0,.75.34.75.75s-.34.75-.75.75h-2c-.3,0-.58-.18-.69-.46-.12-.28-.05-.6.16-.82L11.47,2.47c.29-.29.77-.29,1.06,0l9,9c.21.21.28.54.16.82-.12.28-.39.46-.69.46Z"/>
    <path class="cls-1" d="m17,21.75H7c-1.52,0-2.75-1.23-2.75-2.75v-7c0-.41.34-.75.75-.75s.75.34.75.75v7c0,.69.56,1.25,1.25,1.25h10c.69,0,1.25-.56,1.25-1.25v-7c0-.41.34-.75.75-.75s.75.34.75.75v7c0,1.52-1.23,2.75-2.75,2.75Z"/>
    <path class="cls-1" d="m15,21.75c-.41,0-.75-.34-.75-.75v-6c0-.69-.56-1.25-1.25-1.25h-2c-.69,0-1.25.56-1.25,1.25v6c0,.41-.34.75-.75.75s-.75-.34-.75-.75v-6c0-1.52,1.23-2.75,2.75-2.75h2c1.52,0,2.75,1.23,2.75,2.75v6c0,.41-.34.75-.75.75Z"/>
  </g>
</svg>