<?xml version="1.0" encoding="UTF-8"?>
<svg id="Outlines" xmlns="http://www.w3.org/2000/svg" viewBox="0 0 24 24">
  <defs>
    <style>
      .cls-1 {
        fill: #1b1b1b;
        stroke-width: 0px;
      }
    </style>
  </defs>
  <g id="ivy">
    <path class="cls-1" d="m4.5,16.75c-.41,0-.75-.34-.75-.75V8c0-.41.34-.75.75-.75s.75.34.75.75v8c0,.41-.34.75-.75.75Z"/>
    <path class="cls-1" d="m9.75,16.75c-.31,0-.59-.19-.7-.49l-3-8c-.15-.39.05-.82.44-.97.39-.15.82.05.97.44l2.3,6.13,2.3-6.13c.15-.39.58-.58.97-.44.39.15.58.58.44.97l-3,8c-.11.29-.39.49-.7.49Z"/>
    <path class="cls-1" d="m17.5,13.75c-.28,0-.54-.16-.67-.41l-2.5-5c-.19-.37-.04-.82.34-1.01s.82-.03,1.01.34l1.83,3.66,1.83-3.66c.19-.37.64-.52,1.01-.34.37.19.52.64.34,1.01l-2.5,5c-.13.25-.39.41-.67.41Z"/>
    <path class="cls-1" d="m17.5,17.08c-.41,0-.75-.34-.75-.75v-3.33c0-.41.34-.75.75-.75s.75.34.75.75v3.33c0,.41-.34.75-.75.75Z"/>
  </g>
</svg>