<svg xmlns="http://www.w3.org/2000/svg" id="Outlines" viewBox="0 0 24 24"><defs><style>.cls-1{fill:#1b1b1b;stroke-width:0}</style></defs><g id="layout-sidebar-right-collapse"><path d="m18,20.75H6c-1.52,0-2.75-1.23-2.75-2.75V6c0-1.52,1.23-2.75,2.75-2.75h12c1.52,0,2.75,1.23,2.75,2.75v12c0,1.52-1.23,2.75-2.75,2.75ZM6,4.75c-.69,0-1.25.56-1.25,1.25v12c0,.69.56,1.25,1.25,1.25h12c.69,0,1.25-.56,1.25-1.25V6c0-.69-.56-1.25-1.25-1.25H6Z" class="cls-1"/><path d="m15,20.75c-.41,0-.75-.34-.75-.75V4c0-.41.34-.75.75-.75s.75.34.75.75v16c0,.41-.34.75-.75.75Z" class="cls-1"/><path d="m9,14.75c-.19,0-.38-.07-.53-.22-.29-.29-.29-.77,0-1.06l1.47-1.47-1.47-1.47c-.29-.29-.29-.77,0-1.06s.77-.29,1.06,0l2,2c.29.29.29.77,0,1.06l-2,2c-.15.15-.34.22-.53.22Z" class="cls-1"/></g></svg>