<?xml version="1.0" encoding="UTF-8"?>
<svg id="Outlines" xmlns="http://www.w3.org/2000/svg" viewBox="0 0 24 24">
  <defs>
    <style>
      .cls-1 {
        fill: #1b1b1b;
        stroke-width: 0px;
      }
    </style>
  </defs>
  <g id="manual-outline">
    <path class="cls-1" d="m19.5,21H4.5c-.83,0-1.5-.67-1.5-1.5V4.5c0-.83.67-1.5,1.5-1.5h15c.83,0,1.5.67,1.5,1.5v15c0,.83-.67,1.5-1.5,1.5ZM4.5,4.5v15s15,0,15,0V4.5H4.5Zm0-.75v.75s0,0,0,0v-.75Z"/>
    <path class="cls-1" d="m15.25,12.03h-3.25c-.29,0-.53-.24-.53-.53s.24-.53.53-.53h3.25c.06,0,.12-.02.16-.07.04-.04.07-.1.07-.16s-.02-.12-.07-.16c-.04-.04-.1-.07-.16-.07h-3.75c-.29,0-.53-.24-.53-.53s.24-.53.53-.53h3.75c.34,0,.66.13.9.37.24.24.37.56.37.9s-.13.66-.37.9c-.24.24-.56.37-.9.37Z"/>
    <path class="cls-1" d="m16.25,13.53h-4.25c-.29,0-.53-.24-.53-.53s.24-.53.53-.53h4.25s.16-.06.16-.07l.07-.16-.07-.16-.16-.07h-1c-.29,0-.53-.24-.53-.53s.24-.53.53-.53h1c.17,0,.33.03.49.1.15.06.29.16.41.28s.21.26.28.42c.06.15.1.32.1.49s-.03.33-.1.49c-.06.15-.16.29-.28.41-.11.12-.25.21-.41.28-.16.07-.32.1-.49.1Z"/>
    <path class="cls-1" d="m15.25,15.03h-3.25c-.29,0-.53-.24-.53-.53s.24-.53.53-.53h3.25c.06,0,.12-.02.16-.07.04-.04.07-.1.07-.16s-.02-.12-.07-.16c-.04-.04-.1-.07-.16-.07-.29,0-.53-.24-.53-.53s.24-.53.53-.53c.34,0,.66.13.9.37.24.24.37.56.37.9s-.13.66-.37.9c-.24.24-.56.37-.9.37Z"/>
    <path class="cls-1" d="m14.25,16.53h-4.25c-.93,0-1.84-.38-2.49-1.03-.67-.67-1.03-1.55-1.03-2.49v-1s0-.04,0-.07c.03-.52.17-1.04.42-1.5.28-.51.68-.95,1.17-1.27,0,0,.15-.1.15-.1.16-.1.63-.39,2.89-1.66.29-.16.63-.21.95-.12.32.08.6.29.77.58.17.28.24.61.2.93-.04.32-.19.62-.42.85l-.74.73c-.21.21-.54.2-.74,0s-.21-.54,0-.74l.74-.73c.06-.06.1-.15.12-.24.01-.09,0-.18-.05-.26-.03-.05-.08-.09-.13-.1-.06-.02-.12,0-.17.02-1.66.93-2.61,1.48-2.84,1.63l-.44-.34.29.44c-.34.22-.62.53-.82.89-.19.36-.3.77-.3,1.17v.9c0,.66.26,1.28.72,1.75.46.46,1.1.72,1.75.72h4.25c.06,0,.12-.02.16-.07.04-.04.07-.1.07-.16s-.02-.12-.07-.16c-.04-.04-.1-.07-.16-.07-.29,0-.53-.24-.53-.53s.24-.53.53-.53c.34,0,.66.13.9.37.24.24.37.57.37.9s-.13.66-.37.9c-.24.24-.56.37-.9.37Z"/>
  </g>
</svg>