<?xml version="1.0" encoding="UTF-8"?>
<svg id="Outlines" xmlns="http://www.w3.org/2000/svg" viewBox="0 0 24 24">
  <defs>
    <style>
      .cls-1 {
        fill: #1b1b1b;
        stroke-width: 0px;
      }
    </style>
  </defs>
  <g id="manual">
    <path class="cls-1" d="m18.5,11.75h-6.5c-.41,0-.75-.34-.75-.75s.34-.75.75-.75h6.5c.2,0,.39-.08.53-.22s.22-.33.22-.53-.08-.39-.22-.53-.33-.22-.53-.22h-7.5c-.41,0-.75-.34-.75-.75s.34-.75.75-.75h7.5c.59,0,1.17.24,1.59.66s.66,1,.66,1.59-.23,1.17-.66,1.59-1,.66-1.59.66Z"/>
    <path class="cls-1" d="m20.5,14.75h-8.5c-.41,0-.75-.34-.75-.75s.34-.75.75-.75h8.5c.1,0,.2-.02.29-.06.09-.04.17-.09.24-.16.07-.07.13-.15.16-.25.04-.09.06-.19.06-.29s-.02-.2-.06-.29c-.04-.09-.09-.17-.16-.24s-.15-.12-.24-.16c-.09-.04-.19-.06-.29-.06h-2c-.41,0-.75-.34-.75-.75s.34-.75.75-.75h2c.29,0,.58.06.86.17.28.12.52.28.73.49.21.21.37.45.49.73.11.28.17.57.17.86s-.06.59-.17.86c-.12.28-.28.52-.49.73-.21.21-.45.37-.73.49-.28.11-.57.17-.86.17Z"/>
    <path class="cls-1" d="m18.5,17.75h-6.5c-.41,0-.75-.34-.75-.75s.34-.75.75-.75h6.5c.2,0,.39-.08.53-.22s.22-.33.22-.53-.08-.39-.22-.53-.33-.22-.53-.22c-.41,0-.75-.34-.75-.75s.34-.75.75-.75c.59,0,1.17.24,1.59.66s.66,1,.66,1.59-.23,1.17-.66,1.59-1,.66-1.59.66Z"/>
    <path class="cls-1" d="m16.5,20.75H8c-1.8,0-3.5-.7-4.77-1.98s-1.98-2.97-1.98-4.77v-2s0-.07,0-.11c.05-1.01.32-2,.8-2.89.53-.98,1.3-1.82,2.23-2.44l.3-.2c.5-.33,2.44-1.44,5.77-3.31.51-.29,1.11-.36,1.68-.21.57.15,1.05.51,1.35,1.02.3.5.42,1.09.35,1.67-.07.58-.33,1.12-.75,1.53l-1.47,1.47c-.29.29-.77.29-1.06,0s-.29-.77,0-1.06l1.47-1.47c.17-.18.29-.41.32-.65.03-.25-.02-.5-.15-.71-.1-.17-.26-.29-.45-.34-.19-.05-.39-.02-.56.07-4.11,2.31-5.36,3.05-5.69,3.26l-.3.19c-.72.47-1.32,1.13-1.73,1.89-.41.76-.63,1.62-.63,2.49v1.79c0,1.4.55,2.72,1.54,3.71s2.31,1.54,3.71,1.54h8.5c.2,0,.39-.08.53-.22s.22-.33.22-.53-.08-.39-.22-.53-.33-.22-.53-.22c-.41,0-.75-.34-.75-.75s.34-.75.75-.75c.59,0,1.17.24,1.59.66s.66,1,.66,1.59-.24,1.17-.66,1.59-1,.66-1.59.66Z"/>
  </g>
</svg>