<?xml version="1.0" encoding="UTF-8"?>
<svg id="Outlines" xmlns="http://www.w3.org/2000/svg" viewBox="0 0 24 24">
  <defs>
    <style>
      .cls-1 {
        fill: #1b1b1b;
        stroke-width: 0px;
      }
    </style>
  </defs>
  <g id="method-start">
    <path class="cls-1" d="m17.32,20.25h-7.64c-.76,0-1.48-.26-2.03-.73-.57-.49-.9-1.18-.9-1.89v-1.88c0-.41.34-.75.75-.75s.75.34.75.75v1.88c0,.28.13.55.38.76.27.23.66.37,1.05.37h7.64c.4,0,.78-.13,1.05-.37.24-.21.38-.48.38-.76V6.38c0-.28-.13-.55-.38-.76-.27-.23-.66-.37-1.05-.37h-7.64c-.4,0-.78.13-1.05.37-.24.21-.38.48-.38.76v1.88c0,.41-.34.75-.75.75s-.75-.34-.75-.75v-1.88c0-.71.33-1.4.9-1.9.55-.47,1.27-.73,2.03-.73h7.64c.76,0,1.48.26,2.03.73.57.49.9,1.18.9,1.9v11.25c0,.71-.33,1.4-.9,1.89-.55.47-1.27.73-2.03.73Z"/>
    <path class="cls-1" d="m12.37,15.75c-.18,0-.35-.06-.49-.19-.31-.27-.34-.75-.07-1.06l1.54-1.76H4.5c-.41,0-.75-.34-.75-.75s.34-.75.75-.75h10.5c.29,0,.56.17.68.44.12.27.08.58-.12.8l-2.62,3c-.15.17-.36.26-.56.26Z"/>
    <path class="cls-1" d="m15,12.75c-.21,0-.42-.09-.56-.26l-2.62-3c-.27-.31-.24-.79.07-1.06.31-.27.78-.24,1.06.07l2.62,3c.27.31.24.79-.07,1.06-.14.12-.32.19-.49.19Z"/>
  </g>
</svg>