<?xml version="1.0" encoding="UTF-8"?>
<svg id="Outlines" xmlns="http://www.w3.org/2000/svg" viewBox="0 0 24 24">
  <defs>
    <style>
      .cls-1 {
        fill: #1b1b1b;
        stroke-width: 0px;
      }
    </style>
  </defs>
  <g id="note">
    <path class="cls-1" d="m19,8.75h-4c-.96,0-1.75-.79-1.75-1.75V3c0-.41.34-.75.75-.75s.75.34.75.75v4c0,.14.11.25.25.25h4c.41,0,.75.34.75.75s-.34.75-.75.75Z"/>
    <path class="cls-1" d="m17,21.75H7c-1.52,0-2.75-1.23-2.75-2.75V5c0-1.52,1.23-2.75,2.75-2.75h7c.2,0,.39.08.53.22l5,5c.14.14.22.33.22.53v11c0,1.52-1.23,2.75-2.75,2.75ZM7,3.75c-.69,0-1.25.56-1.25,1.25v14c0,.69.56,1.25,1.25,1.25h10c.69,0,1.25-.56,1.25-1.25v-10.69l-4.56-4.56h-6.69Z"/>
    <path class="cls-1" d="m10,9.75h-1c-.41,0-.75-.34-.75-.75s.34-.75.75-.75h1c.41,0,.75.34.75.75s-.34.75-.75.75Z"/>
    <path class="cls-1" d="m15,13.75h-6c-.41,0-.75-.34-.75-.75s.34-.75.75-.75h6c.41,0,.75.34.75.75s-.34.75-.75.75Z"/>
    <path class="cls-1" d="m15,17.75h-6c-.41,0-.75-.34-.75-.75s.34-.75.75-.75h6c.41,0,.75.34.75.75s-.34.75-.75.75Z"/>
  </g>
</svg>