<?xml version="1.0" encoding="UTF-8"?>
<svg id="Outlines" xmlns="http://www.w3.org/2000/svg" viewBox="0 0 24 24">
  <defs>
    <style>
      .cls-1 {
        fill: #1b1b1b;
        stroke-width: 0px;
      }
    </style>
  </defs>
  <g id="persistence">
    <path class="cls-1" d="m10,16.75c-.41,0-.75-.34-.75-.75V8c0-.41.34-.75.75-.75h2c1.52,0,2.75,1.23,2.75,2.75s-1.23,2.75-2.75,2.75h-1.25v3.25c0,.41-.34.75-.75.75Zm.75-5.5h1.25c.69,0,1.25-.56,1.25-1.25s-.56-1.25-1.25-1.25h-1.25v2.5Z"/>
    <path class="cls-1" d="m12,21.75c-7.65,0-9.75-2.1-9.75-9.75S4.35,2.25,12,2.25s9.75,2.1,9.75,9.75-2.1,9.75-9.75,9.75Zm0-18c-6.79,0-8.25,1.46-8.25,8.25s1.46,8.25,8.25,8.25,8.25-1.46,8.25-8.25-1.46-8.25-8.25-8.25Z"/>
  </g>
</svg>