<?xml version="1.0" encoding="UTF-8"?>
<svg id="Outlines" xmlns="http://www.w3.org/2000/svg" viewBox="0 0 24 24">
  <defs>
    <style>
      .cls-1 {
        fill: #1b1b1b;
        stroke-width: 0px;
      }
    </style>
  </defs>
  <g id="process">
    <path class="cls-1" d="m19,21.75h-2c-.74,0-1.43-.29-1.95-.81-.52-.52-.8-1.21-.8-1.94v-2c0-.73.29-1.42.81-1.94s1.21-.81,1.94-.81h2c.73,0,1.42.29,1.94.8.52.52.81,1.21.81,1.95v2c0,.74-.29,1.43-.8,1.94s-1.21.81-1.95.81Zm-2-6c-.33,0-.65.13-.88.37s-.37.55-.37.88v2c0,.33.13.65.37.88s.55.37.88.37h2c.33,0,.65-.13.88-.37s.37-.55.37-.88v-2c0-.33-.13-.65-.37-.88s-.55-.37-.88-.37h-2Z"/>
    <path class="cls-1" d="m19,9.75h-2c-.74,0-1.43-.29-1.95-.81-.52-.52-.8-1.21-.8-1.94v-2c0-.73.29-1.42.81-1.94s1.21-.81,1.94-.81h2c.73,0,1.42.29,1.94.8.52.52.81,1.21.81,1.95v2c0,.74-.29,1.43-.8,1.94s-1.21.81-1.95.81Zm-2-6c-.33,0-.65.13-.88.37s-.37.55-.37.88v2c0,.33.13.65.37.88s.55.37.88.37h2c.33,0,.65-.13.88-.37s.37-.55.37-.88v-2c0-.33-.13-.65-.37-.88s-.55-.37-.88-.37h-2Z"/>
    <path class="cls-1" d="m7,15.75h-2c-.74,0-1.43-.29-1.95-.81-.52-.52-.8-1.21-.8-1.94v-2c0-.73.29-1.42.81-1.94s1.21-.81,1.94-.81h2c.73,0,1.42.29,1.94.8.52.52.81,1.21.81,1.95v2c0,.74-.29,1.43-.8,1.94s-1.21.81-1.95.81Zm-2-6c-.33,0-.65.13-.88.37s-.37.55-.37.88v2c0,.33.13.65.37.88s.55.37.88.37h2c.33,0,.65-.13.88-.37s.37-.55.37-.88v-2c0-.33-.13-.65-.37-.88s-.55-.37-.88-.37h-2Z"/>
    <path class="cls-1" d="m15,18.75h-1c-.74,0-1.43-.29-1.95-.81-.52-.52-.8-1.21-.8-1.94V8c0-.73.29-1.42.81-1.94s1.21-.81,1.94-.81h1c.41,0,.75.34.75.75s-.34.75-.75.75h-1c-.33,0-.65.13-.88.37s-.37.55-.37.88v8c0,.33.13.65.37.88s.55.37.88.37h1c.41,0,.75.34.75.75s-.34.75-.75.75Z"/>
    <path class="cls-1" d="m12,12.75h-3c-.41,0-.75-.34-.75-.75s.34-.75.75-.75h3c.41,0,.75.34.75.75s-.34.75-.75.75Z"/>
  </g>
</svg>