<?xml version="1.0" encoding="UTF-8"?>
<svg id="Outlines" xmlns="http://www.w3.org/2000/svg" viewBox="0 0 24 24">
  <defs>
    <style>
      .cls-1 {
        fill: #1b1b1b;
        stroke-width: 0px;
      }
    </style>
  </defs>
  <g id="receive">
    <path class="cls-1" d="m12,18.75h-7c-.74,0-1.43-.29-1.95-.81s-.8-1.21-.8-1.94V6c0-.74.29-1.43.8-1.95s1.21-.8,1.95-.8h14c.74,0,1.43.29,1.94.8s.81,1.21.81,1.95v7.5c0,.41-.34.75-.75.75s-.75-.34-.75-.75v-7.5c0-.33-.13-.65-.37-.88s-.55-.37-.88-.37H5c-.33,0-.65.13-.88.37s-.37.55-.37.88v10c0,.33.13.65.37.88s.55.37.88.37h7c.41,0,.75.34.75.75s-.34.75-.75.75Z"/>
    <path class="cls-1" d="m12,12.75c-.15,0-.29-.04-.42-.13L2.58,6.62c-.34-.23-.44-.7-.21-1.04.23-.34.7-.44,1.04-.21l8.58,5.72,8.58-5.72c.35-.23.81-.14,1.04.21.23.34.14.81-.21,1.04l-9,6c-.13.08-.27.13-.42.13Z"/>
    <path class="cls-1" d="m21,18.75h-6c-.41,0-.75-.34-.75-.75s.34-.75.75-.75h6c.41,0,.75.34.75.75s-.34.75-.75.75Z"/>
    <path class="cls-1" d="m18,21.75c-.19,0-.38-.07-.53-.22l-3-3c-.29-.29-.29-.77,0-1.06l3-3c.29-.29.77-.29,1.06,0s.29.77,0,1.06l-2.47,2.47,2.47,2.47c.29.29.29.77,0,1.06-.15.15-.34.22-.53.22Z"/>
  </g>
</svg>