<?xml version="1.0" encoding="UTF-8"?>
<svg id="Outlines" xmlns="http://www.w3.org/2000/svg" viewBox="0 0 24 24">
  <defs>
    <style>
      .cls-1 {
        fill: #1b1b1b;
        stroke-width: 0px;
      }
    </style>
  </defs>
  <g id="rest-client">
    <path class="cls-1" d="m5,20.75c-.96,0-1.75-.79-1.75-1.75s.79-1.75,1.75-1.75,1.75.79,1.75,1.75-.79,1.75-1.75,1.75Z"/>
    <path class="cls-1" d="m20,20.75c-.41,0-.75-.34-.75-.75,0-8.41-6.84-15.25-15.25-15.25-.41,0-.75-.34-.75-.75s.34-.75.75-.75c9.24,0,16.75,7.51,16.75,16.75,0,.41-.34.75-.75.75Z"/>
    <path class="cls-1" d="m13,20.75c-.41,0-.75-.34-.75-.75,0-4.55-3.7-8.25-8.25-8.25-.41,0-.75-.34-.75-.75s.34-.75.75-.75c5.38,0,9.75,4.37,9.75,9.75,0,.41-.34.75-.75.75Z"/>
  </g>
</svg>