<?xml version="1.0" encoding="UTF-8"?>
<svg id="Outlines" xmlns="http://www.w3.org/2000/svg" viewBox="0 0 24 24">
  <defs>
    <style>
      .cls-1 {
        fill: #1b1b1b;
        stroke-width: 0px;
      }
    </style>
  </defs>
  <g id="rule">
    <path class="cls-1" d="m19,21.75H5c-.74,0-1.43-.29-1.95-.81-.52-.52-.8-1.21-.8-1.94V5c0-.74.29-1.43.81-1.95.52-.52,1.21-.8,1.94-.8h14c.73,0,1.42.29,1.94.81s.81,1.21.81,1.94v14c0,.73-.29,1.42-.81,1.94-.52.52-1.21.81-1.94.81ZM5,3.75c-.33,0-.65.13-.88.37s-.37.55-.37.88v14c0,.33.13.65.37.88s.55.37.88.37h14c.33,0,.65-.13.88-.37s.37-.56.37-.88V5c0-.33-.13-.65-.37-.88s-.55-.37-.88-.37H5Z"/>
    <path class="cls-1" d="m21,9.75H3c-.41,0-.75-.34-.75-.75s.34-.75.75-.75h18c.41,0,.75.34.75.75s-.34.75-.75.75Z"/>
    <path class="cls-1" d="m21,15.75H3c-.41,0-.75-.34-.75-.75s.34-.75.75-.75h18c.41,0,.75.34.75.75s-.34.75-.75.75Z"/>
    <path class="cls-1" d="m10,21.75c-.41,0-.75-.34-.75-.75V3c0-.41.34-.75.75-.75s.75.34.75.75v18c0,.41-.34.75-.75.75Z"/>
  </g>
</svg>