<?xml version="1.0" encoding="UTF-8"?>
<svg id="Outlines" xmlns="http://www.w3.org/2000/svg" viewBox="0 0 24 24">
  <defs>
    <style>
      .cls-1 {
        fill: #1b1b1b;
        stroke-width: 0px;
      }
    </style>
  </defs>
  <g id="script">
    <path class="cls-1" d="m19,8.75h-4c-.96,0-1.75-.79-1.75-1.75V3c0-.41.34-.75.75-.75s.75.34.75.75v4c0,.14.11.25.25.25h4c.41,0,.75.34.75.75s-.34.75-.75.75Z"/>
    <path class="cls-1" d="m17,21.75H7c-1.52,0-2.75-1.23-2.75-2.75V5c0-1.52,1.23-2.75,2.75-2.75h7c.2,0,.39.08.53.22l5,5c.14.14.22.33.22.53v11c0,1.52-1.23,2.75-2.75,2.75ZM7,3.75c-.69,0-1.25.56-1.25,1.25v14c0,.69.56,1.25,1.25,1.25h10c.69,0,1.25-.56,1.25-1.25v-10.69l-4.56-4.56h-6.69Z"/>
    <path class="cls-1" d="m10,17.75c-.28,0-.54-.15-.67-.41l-1-2c-.11-.21-.11-.46,0-.67l1-2c.19-.37.64-.52,1.01-.34.37.19.52.64.34,1.01l-.83,1.66.83,1.66c.19.37.04.82-.34,1.01-.11.05-.22.08-.33.08Z"/>
    <path class="cls-1" d="m14,17.75c-.11,0-.23-.03-.33-.08-.37-.19-.52-.64-.34-1.01l.83-1.66-.83-1.66c-.19-.37-.04-.82.34-1.01.37-.19.82-.03,1.01.34l1,2c.11.21.11.46,0,.67l-1,2c-.13.26-.4.41-.67.41Z"/>
  </g>
</svg>