<?xml version="1.0" encoding="UTF-8"?>
<svg id="Outlines" xmlns="http://www.w3.org/2000/svg" viewBox="0 0 24 24">
  <defs>
    <style>
      .cls-1 {
        fill: #1b1b1b;
        stroke-width: 0px;
      }
    </style>
  </defs>
  <g id="settings-outline">
    <path class="cls-1" d="m12,17.03c-.65,0-1.19-.43-1.35-1.06-.01-.05-.04-.1-.07-.14-.04-.04-.08-.08-.13-.1-.04-.02-.09-.03-.15-.02-.05,0-.11.02-.15.05-.55.34-1.24.26-1.7-.21-.46-.46-.54-1.15-.2-1.7.03-.04.04-.1.05-.15,0-.05,0-.1-.02-.15-.02-.05-.05-.1-.09-.13-.04-.03-.09-.06-.14-.07-.63-.15-1.06-.7-1.06-1.35s.43-1.19,1.06-1.35c.05-.01.1-.04.14-.07.04-.03.07-.08.09-.13.02-.05.03-.1.03-.16,0-.05-.02-.1-.05-.15-.34-.56-.26-1.24.2-1.7.46-.46,1.15-.54,1.7-.2.13.08.25.05.31.02.06-.02.16-.09.2-.23h0c.15-.63.69-1.06,1.35-1.06s1.19.43,1.35,1.06c.01.05.04.1.07.14.03.04.08.07.12.09.05.02.1.03.16.03.05,0,.1-.02.15-.05.56-.34,1.24-.26,1.7.2s.54,1.15.2,1.7c-.03.05-.04.1-.05.15,0,.05,0,.11.03.16.02.05.05.09.09.12.04.04.09.06.14.07.63.15,1.06.69,1.06,1.35s-.43,1.19-1.06,1.35c-.05.01-.1.04-.14.07-.04.04-.07.08-.09.13-.02.05-.03.1-.02.16,0,.05.02.1.05.15.34.56.26,1.24-.2,1.7s-1.14.54-1.7.2c-.04-.03-.1-.04-.15-.05-.06,0-.11,0-.16.02-.05.02-.09.05-.13.09s-.06.09-.07.14c-.15.63-.7,1.06-1.35,1.06Zm-1.68-2.37c.18,0,.36.04.53.1.21.09.39.22.53.38.14.16.24.36.29.57.06.23.25.26.33.26s.27-.03.33-.26c.05-.21.15-.41.29-.57.14-.17.33-.3.53-.38.2-.08.42-.12.64-.1.21.02.43.08.62.2.2.12.36,0,.41-.05.06-.06.17-.21.05-.41-.11-.19-.18-.4-.2-.62-.02-.21.02-.43.1-.64s.21-.38.38-.52c.16-.14.36-.24.57-.29.23-.06.26-.25.26-.33s-.03-.27-.26-.33c-.21-.05-.41-.15-.58-.29s-.3-.32-.38-.52c-.08-.2-.12-.42-.1-.64.02-.22.09-.44.2-.62.12-.2,0-.35-.05-.41-.06-.06-.21-.17-.41-.05-.18.11-.4.18-.61.2-.21.02-.44-.02-.64-.1-.2-.08-.38-.21-.52-.38-.14-.17-.24-.37-.29-.57-.06-.23-.25-.26-.33-.26s-.27.03-.33.26h0c-.11.44-.4.78-.82.95-.41.17-.87.14-1.25-.1-.21-.12-.36,0-.42.05-.06.06-.17.21-.05.41.11.18.18.4.2.62.02.22-.02.44-.1.64-.08.2-.21.38-.38.52s-.36.24-.58.29c-.23.06-.26.25-.26.33s.03.27.26.33c.21.05.41.15.58.29.17.14.3.32.38.52.08.2.12.42.1.64-.02.22-.09.43-.2.61-.12.21,0,.36.05.42.06.06.21.18.41.05.19-.11.4-.18.61-.2.04,0,.07,0,.11,0Zm.84-6.5h0,0Z"/>
    <path class="cls-1" d="m12,14.03c-.53,0-1.05-.22-1.43-.59s-.59-.89-.59-1.43.22-1.05.59-1.43c.75-.75,2.11-.75,2.86,0,.38.38.59.9.59,1.43s-.21,1.05-.59,1.43-.9.59-1.43.59Zm0-3c-.26,0-.51.1-.69.29s-.29.43-.29.69.1.5.29.69c.36.36,1.02.36,1.38,0,.18-.18.29-.43.29-.69s-.1-.51-.29-.69-.43-.29-.69-.29Z"/>
    <path class="cls-1" d="m19.5,21H4.5c-.83,0-1.5-.67-1.5-1.5V4.5c0-.83.67-1.5,1.5-1.5h15c.83,0,1.5.67,1.5,1.5v15c0,.83-.67,1.5-1.5,1.5ZM4.5,4.5v15s15,0,15,0V4.5H4.5Zm0-.75v.75s0,0,0,0v-.75Z"/>
  </g>
</svg>