<svg xmlns="http://www.w3.org/2000/svg" id="Outlines" viewBox="0 0 24 24"><defs><style>.cls-1{fill:#1b1b1b;stroke-width:0}</style></defs><g id="settings-cog"><path d="m12,21.75c-1.17,0-2.13-.76-2.4-1.89-.06-.25-.22-.47-.44-.6-.22-.14-.48-.18-.74-.12-.1.02-.19.06-.28.12-.99.61-2.21.46-3.04-.36-.82-.82-.97-2.04-.36-3.04.14-.22.18-.48.11-.74-.06-.25-.22-.47-.44-.6-.09-.05-.18-.09-.28-.12-1.13-.27-1.89-1.24-1.89-2.4s.76-2.13,1.89-2.4c.25-.06.47-.22.6-.44.14-.22.18-.48.12-.74-.02-.1-.06-.19-.12-.28-.61-.99-.46-2.21.36-3.04s2.04-.97,3.04-.37c.27.17.59.19.88.07.29-.12.5-.36.57-.67.27-1.13,1.24-1.89,2.4-1.89s2.13.76,2.4,1.89c.06.25.22.47.44.6.22.14.49.17.74.12.1-.02.19-.06.27-.11,1-.61,2.22-.46,3.04.36.82.82.97,2.04.36,3.04-.28.46-.13,1.06.33,1.34.09.05.18.09.28.12,1.14.28,1.9,1.25,1.89,2.43,0,.41-.34.74-.75.74h0c-.41,0-.75-.34-.74-.76,0-.38-.19-.82-.75-.96-.25-.06-.49-.16-.7-.29-1.16-.71-1.53-2.23-.83-3.4.29-.48.12-.93-.14-1.2-.26-.26-.72-.44-1.2-.14-.22.13-.45.23-.71.29-.64.16-1.31.05-1.87-.29-.56-.34-.96-.89-1.12-1.53-.13-.55-.58-.74-.95-.74s-.81.2-.95.74c-.19.78-.72,1.4-1.46,1.7-.74.3-1.55.24-2.23-.17-.48-.29-.93-.12-1.2.14-.26.26-.44.71-.14,1.19.13.22.23.46.29.71.16.64.05,1.31-.29,1.87-.34.56-.89.96-1.53,1.12-.55.13-.74.58-.74.95s.2.81.74.95c.25.06.48.16.7.29.57.34.96.89,1.12,1.53s.05,1.31-.29,1.87c-.29.48-.12.93.14,1.2.26.26.71.44,1.2.14.22-.13.46-.23.71-.29.64-.15,1.31-.05,1.87.29.56.34.96.89,1.12,1.53.13.55.58.74.95.74h0c.41,0,.75.33.75.75s-.33.75-.75.75h0Z" class="cls-1"/><path d="m12,15.75c-2.07,0-3.75-1.68-3.75-3.75s1.68-3.75,3.75-3.75,3.75,1.68,3.75,3.75-1.68,3.75-3.75,3.75Zm0-6c-1.24,0-2.25,1.01-2.25,2.25s1.01,2.25,2.25,2.25,2.25-1.01,2.25-2.25-1.01-2.25-2.25-2.25Z" class="cls-1"/><path d="m19,21.75c-1.52,0-2.75-1.23-2.75-2.75s1.23-2.75,2.75-2.75,2.75,1.23,2.75,2.75-1.23,2.75-2.75,2.75Zm0-4c-.69,0-1.25.56-1.25,1.25s.56,1.25,1.25,1.25,1.25-.56,1.25-1.25-.56-1.25-1.25-1.25Z" class="cls-1"/><path d="m19,17.75c-.41,0-.75-.34-.75-.75v-1.5c0-.41.34-.75.75-.75s.75.34.75.75v1.5c0,.41-.34.75-.75.75Z" class="cls-1"/><path d="m19,23.25c-.41,0-.75-.34-.75-.75v-1.5c0-.41.34-.75.75-.75s.75.34.75.75v1.5c0,.41-.34.75-.75.75Z" class="cls-1"/><path d="m20.73,18.75c-.26,0-.51-.13-.65-.38-.21-.36-.08-.82.27-1.02l1.3-.75c.36-.21.82-.08,1.02.27.21.36.08.82-.27,1.02l-1.3.75c-.12.07-.25.1-.37.1Z" class="cls-1"/><path d="m15.97,21.5c-.26,0-.51-.13-.65-.38-.21-.36-.08-.82.27-1.02l1.3-.75c.36-.21.82-.08,1.02.27.21.36.08.82-.27,1.02l-1.3.75c-.12.07-.25.1-.37.1Z" class="cls-1"/><path d="m17.27,18.75c-.13,0-.26-.03-.37-.1l-1.3-.75c-.36-.21-.48-.67-.27-1.02.21-.36.67-.48,1.02-.27l1.3.75c.36.21.48.67.27,1.02-.14.24-.39.38-.65.38Z" class="cls-1"/><path d="m22.03,21.5c-.13,0-.26-.03-.37-.1l-1.3-.75c-.36-.21-.48-.67-.27-1.02.21-.36.67-.48,1.02-.27l1.3.75c.36.21.48.67.27,1.02-.14.24-.39.38-.65.38Z" class="cls-1"/></g></svg>