<svg xmlns="http://www.w3.org/2000/svg" id="Outlines" viewBox="0 0 24 24"><defs><style>.cls-1{fill:#1b1b1b;stroke-width:0}</style></defs><g id="sql"><path d="m12,16.75c-1.52,0-2.75-1.23-2.75-2.75v-4c0-1.52,1.23-2.75,2.75-2.75s2.75,1.23,2.75,2.75v4c0,1.52-1.23,2.75-2.75,2.75Zm0-8c-.69,0-1.25.56-1.25,1.25v4c0,.69.56,1.25,1.25,1.25s1.25-.56,1.25-1.25v-4c0-.69-.56-1.25-1.25-1.25Z" class="cls-1"/><path d="m21,16.75h-4c-.41,0-.75-.34-.75-.75V8c0-.41.34-.75.75-.75s.75.34.75.75v7.25h3.25c.41,0,.75.34.75.75s-.34.75-.75.75Z" class="cls-1"/><path d="m14,16.75c-.19,0-.38-.07-.53-.22l-1-1c-.29-.29-.29-.77,0-1.06s.77-.29,1.06,0l1,1c.29.29.29.77,0,1.06-.15.15-.34.22-.53.22Z" class="cls-1"/><path d="m6.41,16.75h-2c-.96,0-1.75-.79-1.75-1.75,0-.41.34-.75.75-.75s.75.34.75.75c0,.14.11.25.25.25h2c.14,0,.25-.11.25-.25v-2c0-.14-.11-.25-.25-.25h-2c-.96,0-1.75-.79-1.75-1.75v-2c0-.96.79-1.75,1.75-1.75h2c.96,0,1.75.79,1.75,1.75,0,.41-.34.75-.75.75s-.75-.34-.75-.75c0-.14-.11-.25-.25-.25h-2c-.14,0-.25.11-.25.25v2c0,.14.11.25.25.25h2c.96,0,1.75.79,1.75,1.75v2c0,.96-.79,1.75-1.75,1.75Z" class="cls-1"/></g></svg>