<svg xmlns="http://www.w3.org/2000/svg" id="Outlines" viewBox="0 0 24 24"><defs><style>.cls-1{fill:#1b1b1b;stroke-width:0}</style></defs><g id="start-program"><path d="m7,16.75c-.19,0-.38-.07-.53-.22l-4-4c-.29-.29-.29-.77,0-1.06l4-4c.29-.29.77-.29,1.06,0s.29.77,0,1.06l-3.47,3.47,3.47,3.47c.29.29.29.77,0,1.06-.15.15-.34.22-.53.22Z" class="cls-1"/><path d="m17,16.75c-.19,0-.38-.07-.53-.22-.29-.29-.29-.77,0-1.06l3.47-3.47-3.47-3.47c-.29-.29-.29-.77,0-1.06s.77-.29,1.06,0l4,4c.29.29.29.77,0,1.06l-4,4c-.15.15-.34.22-.53.22Z" class="cls-1"/><path d="m10,20.75c-.06,0-.12,0-.18-.02-.4-.1-.65-.51-.55-.91L13.27,3.82c.1-.4.51-.65.91-.55.4.1.65.51.55.91l-4,16c-.08.34-.39.57-.73.57Z" class="cls-1"/></g></svg>