<?xml version="1.0" encoding="UTF-8"?>
<svg id="Outlines" xmlns="http://www.w3.org/2000/svg" viewBox="0 0 24 24">
  <defs>
    <style>
      .cls-1 {
        fill: #1b1b1b;
        stroke-width: 0px;
      }
    </style>
  </defs>
  <g id="tasks-gateways">
    <path class="cls-1" d="m12,16.64c-.41,0-.75-.34-.75-.75v-7.78c0-.41.34-.75.75-.75s.75.34.75.75v7.78c0,.41-.34.75-.75.75Z"/>
    <path class="cls-1" d="m15.89,12.75h-7.78c-.41,0-.75-.34-.75-.75s.34-.75.75-.75h7.78c.41,0,.75.34.75.75s-.34.75-.75.75Z"/>
    <path class="cls-1" d="m12,20.89c-2.28,0-4.55-.87-6.29-2.6-3.47-3.47-3.47-9.11,0-12.58h0c3.47-3.47,9.11-3.46,12.58,0,3.47,3.47,3.47,9.11,0,12.58-1.73,1.73-4.01,2.6-6.29,2.6ZM6.77,6.77c-2.88,2.88-2.88,7.57,0,10.45s7.57,2.88,10.46,0,2.88-7.57,0-10.45c-2.88-2.88-7.57-2.88-10.46,0h0Z"/>
  </g>
</svg>