<svg xmlns="http://www.w3.org/2000/svg" id="Outlines" viewBox="0 0 24 24"><defs><style>.cls-1{fill:#1b1b1b;stroke-width:0}</style></defs><g id="task-double-outline"><path d="m15,11.03h-6c-.29,0-.53-.24-.53-.53s.24-.53.53-.53h6c.29,0,.53.24.53.53s-.24.53-.53.53Z" class="cls-1"/><path d="m15,12.83h-6c-.29,0-.53-.24-.53-.53s.24-.53.53-.53h6c.29,0,.53.24.53.53s-.24.53-.53.53Z" class="cls-1"/><path d="m15,14.63h-6c-.29,0-.53-.24-.53-.53s.24-.53.53-.53h6c.29,0,.53.24.53.53s-.24.53-.53.53Z" class="cls-1"/><path d="m12,21.75c-2.61,0-5.05-1.01-6.89-2.86-1.84-1.84-2.86-4.29-2.86-6.89s1.01-5.05,2.86-6.89c1.84-1.84,4.29-2.86,6.89-2.86s5.05,1.01,6.89,2.86c1.84,1.84,2.86,4.29,2.86,6.89s-1.01,5.05-2.86,6.89c-1.84,1.84-4.29,2.86-6.89,2.86Zm0-18c-2.17,0-4.3.88-5.83,2.42s-2.42,3.63-2.42,5.83.86,4.28,2.42,5.83c1.56,1.56,3.63,2.42,5.83,2.42s4.28-.86,5.83-2.42,2.42-3.63,2.42-5.83-.86-4.28-2.42-5.83c-1.56-1.56-3.63-2.42-5.83-2.42Z" class="cls-1"/><path d="m12,18.75c-1.8,0-3.5-.7-4.77-1.98-1.27-1.27-1.98-2.97-1.98-4.77s.7-3.5,1.98-4.77c1.28-1.27,2.97-1.98,4.77-1.98s3.5.7,4.77,1.98c1.28,1.27,1.98,2.97,1.98,4.77s-.7,3.5-1.98,4.77c-1.26,1.26-3,1.98-4.77,1.98Zm0-12c-1.4,0-2.72.55-3.71,1.54-.99.99-1.54,2.31-1.54,3.71s.55,2.72,1.54,3.71c.99.99,2.31,1.54,3.71,1.54s2.73-.56,3.71-1.54c.99-.99,1.54-2.31,1.54-3.71s-.55-2.72-1.54-3.71c-.99-.99-2.31-1.54-3.71-1.54Z" class="cls-1"/></g></svg>