<?xml version="1.0" encoding="UTF-8"?>
<svg id="Outlines" xmlns="http://www.w3.org/2000/svg" viewBox="0 0 24 24">
  <defs>
    <style>
      .cls-1 {
        fill: #1b1b1b;
        stroke-width: 0px;
      }
    </style>
  </defs>
  <g id="tool">
    <path class="cls-1" d="m19,21.87c-.77,0-1.49-.3-2.03-.84l-5.64-5.64c-1.5.58-3.13.6-4.67.06-1.7-.6-3.06-1.83-3.84-3.45-.88-1.85-.88-3.97,0-5.82.1-.22.31-.38.55-.42.24-.04.49.04.66.21l3.28,3.28h1.94v-1.94l-3.28-3.28c-.17-.17-.25-.42-.21-.66.04-.24.2-.44.42-.55,3.36-1.6,7.39-.18,9,3.18.8,1.69.88,3.6.21,5.32l5.64,5.64c1.12,1.12,1.12,2.94,0,4.06-.54.54-1.26.84-2.03.84Zm-7.5-8.12c.19,0,.39.08.53.22l6,6c.52.52,1.42.52,1.94,0,.53-.53.53-1.4,0-1.94l-6-6c-.22-.22-.28-.57-.15-.85.69-1.44.69-3.09,0-4.53-1.08-2.27-3.6-3.41-5.96-2.84l2.66,2.66c.14.14.22.33.22.53v3c0,.41-.34.75-.75.75h-3c-.2,0-.39-.08-.53-.22l-2.66-2.66c-.28,1.16-.16,2.38.37,3.48.6,1.27,1.67,2.22,2.99,2.69,1.32.47,2.75.39,4.01-.21.1-.05.21-.07.32-.07Z"/>
  </g>
</svg>