<svg xmlns="http://www.w3.org/2000/svg" id="Outlines" viewBox="0 0 24 24"><defs><style>.cls-1{fill:#1b1b1b;stroke-width:0}</style></defs><g id="trigger"><path d="m21,12.75h-10c-.41,0-.75-.34-.75-.75s.34-.75.75-.75h10c.41,0,.75.34.75.75s-.34.75-.75.75Z" class="cls-1"/><path d="m18,15.75c-.19,0-.38-.07-.53-.22-.29-.29-.29-.77,0-1.06l2.47-2.47-2.47-2.47c-.29-.29-.29-.77,0-1.06s.77-.29,1.06,0l3,3c.29.29.29.77,0,1.06l-3,3c-.15.15-.34.22-.53.22Z" class="cls-1"/><path d="m5,14.75c-1.52,0-2.75-1.23-2.75-2.75s1.23-2.75,2.75-2.75,2.75,1.23,2.75,2.75-1.23,2.75-2.75,2.75Zm0-4c-.69,0-1.25.56-1.25,1.25s.56,1.25,1.25,1.25,1.25-.56,1.25-1.25-.56-1.25-1.25-1.25Z" class="cls-1"/></g></svg>