<svg xmlns="http://www.w3.org/2000/svg" id="Outlines" viewBox="0 0 24 24"><defs><style>.cls-1{fill:#1b1b1b;stroke-width:0}</style></defs><g id="user"><path d="m12,11.75c-2.62,0-4.75-2.13-4.75-4.75s2.13-4.75,4.75-4.75,4.75,2.13,4.75,4.75-2.13,4.75-4.75,4.75Zm0-8c-1.79,0-3.25,1.46-3.25,3.25s1.46,3.25,3.25,3.25,3.25-1.46,3.25-3.25-1.46-3.25-3.25-3.25Z" class="cls-1"/><path d="m18,21.75c-.41,0-.75-.34-.75-.75v-2c0-1.79-1.46-3.25-3.25-3.25h-4c-1.79,0-3.25,1.46-3.25,3.25v2c0,.41-.34.75-.75.75s-.75-.34-.75-.75v-2c0-2.62,2.13-4.75,4.75-4.75h4c2.62,0,4.75,2.13,4.75,4.75v2c0,.41-.34.75-.75.75Z" class="cls-1"/></g></svg>