<?xml version="1.0" encoding="UTF-8"?>
<svg id="Outlines" xmlns="http://www.w3.org/2000/svg" viewBox="0 0 24 24">
  <defs>
    <style>
      .cls-1 {
        fill: #1b1b1b;
        stroke-width: 0px;
      }
    </style>
  </defs>
  <g id="user-outline">
    <path class="cls-1" d="m19.5,21H4.5c-.83,0-1.5-.67-1.5-1.5V4.5c0-.83.67-1.5,1.5-1.5h15c.83,0,1.5.67,1.5,1.5v15c0,.83-.67,1.5-1.5,1.5ZM4.5,4.5h0v15h15V4.5H4.5Z"/>
    <path class="cls-1" d="m12,12.75c-.8,0-1.55-.31-2.12-.88s-.88-1.32-.88-2.12.31-1.55.88-2.12c1.13-1.13,3.11-1.13,4.24,0,.57.57.88,1.32.88,2.12s-.31,1.55-.88,2.12-1.32.88-2.12.88Zm0-4.5c-.4,0-.78.16-1.06.44-.28.28-.44.66-.44,1.06s.16.78.44,1.06c.57.57,1.55.57,2.12,0,.28-.28.44-.66.44-1.06s-.16-.78-.44-1.06c-.28-.28-.66-.44-1.06-.44Z"/>
    <path class="cls-1" d="m15.38,18.38c-.41,0-.75-.34-.75-.75v-1.12c0-.4-.16-.78-.44-1.06-.28-.28-.66-.44-1.06-.44h-2.25c-.4,0-.78.16-1.06.44-.28.28-.44.66-.44,1.06v1.12c0,.41-.34.75-.75.75s-.75-.34-.75-.75v-1.12c0-.8.31-1.55.88-2.12.57-.57,1.32-.88,2.12-.88h2.25c.8,0,1.55.31,2.12.88.57.57.88,1.32.88,2.12v1.12c0,.41-.34.75-.75.75Z"/>
  </g>
</svg>