<?xml version="1.0" encoding="UTF-8"?>
<svg id="Outlines" xmlns="http://www.w3.org/2000/svg" viewBox="0 0 24 24">
  <defs>
    <style>
      .cls-1 {
        fill: #1b1b1b;
        stroke-width: 0px;
      }
    </style>
  </defs>
  <g id="users">
    <path class="cls-1" d="m9,11.75c-2.62,0-4.75-2.13-4.75-4.75s2.13-4.75,4.75-4.75,4.75,2.13,4.75,4.75-2.13,4.75-4.75,4.75Zm0-8c-1.79,0-3.25,1.46-3.25,3.25s1.46,3.25,3.25,3.25,3.25-1.46,3.25-3.25-1.46-3.25-3.25-3.25Z"/>
    <path class="cls-1" d="m15,21.75c-.41,0-.75-.34-.75-.75v-2c0-1.79-1.46-3.25-3.25-3.25h-4c-1.79,0-3.25,1.46-3.25,3.25v2c0,.41-.34.75-.75.75s-.75-.34-.75-.75v-2c0-2.62,2.13-4.75,4.75-4.75h4c2.62,0,4.75,2.13,4.75,4.75v2c0,.41-.34.75-.75.75Z"/>
    <path class="cls-1" d="m16,11.63c-.33,0-.64-.22-.73-.56-.1-.4.14-.81.54-.91,1.15-.29,2.05-1.19,2.34-2.34.21-.84.09-1.72-.35-2.46-.44-.75-1.15-1.28-1.99-1.49-.4-.1-.64-.51-.54-.91.1-.4.52-.64.91-.54,1.23.31,2.26,1.09,2.91,2.18s.83,2.37.51,3.6c-.43,1.68-1.74,2.99-3.42,3.42-.06.02-.12.02-.19.02Z"/>
    <path class="cls-1" d="m21,21.75c-.41,0-.75-.34-.75-.75v-2c0-1.47-1.01-2.75-2.44-3.12-.4-.1-.64-.51-.54-.91s.52-.64.91-.54c2.08.54,3.55,2.42,3.56,4.57v2c0,.41-.34.75-.75.75Z"/>
  </g>
</svg>