<?xml version="1.0" encoding="UTF-8"?>
<svg id="Outlines" xmlns="http://www.w3.org/2000/svg" viewBox="0 0 24 24">
  <defs>
    <style>
      .cls-1 {
        fill: #1b1b1b;
        stroke-width: 0px;
      }
    </style>
  </defs>
  <g id="user-dialog">
    <path class="cls-1" d="m18,20.75H6c-.73,0-1.42-.29-1.94-.81s-.81-1.21-.81-1.94V6c0-.73.29-1.42.81-1.94s1.21-.81,1.94-.81h12c.73,0,1.42.29,1.94.81s.81,1.21.81,1.94v12c0,.73-.29,1.42-.81,1.94s-1.21.81-1.94.81ZM6,4.75c-.33,0-.65.13-.88.37s-.37.55-.37.88v12c0,.33.13.65.37.88s.55.37.88.37h12c.33,0,.65-.13.88-.37s.37-.55.37-.88V6c0-.33-.13-.65-.37-.88s-.55-.37-.88-.37H6Z"/>
    <path class="cls-1" d="m12,13.53c-.67,0-1.31-.26-1.79-.74-.48-.48-.74-1.11-.74-1.79s.26-1.31.74-1.79c.96-.95,2.62-.95,3.57,0,.48.48.74,1.11.74,1.79s-.26,1.31-.74,1.79c-.48.48-1.11.74-1.79.74Zm0-4c-.39,0-.76.15-1.04.43-.28.28-.43.65-.43,1.04s.16.77.43,1.04c.55.55,1.54.55,2.09,0,.27-.27.43-.66.43-1.04s-.15-.76-.43-1.04c-.28-.28-.65-.43-1.04-.43Z"/>
    <path class="cls-1" d="m15,18.53c-.29,0-.53-.24-.53-.53v-1c0-.39-.15-.76-.43-1.04-.28-.28-.65-.43-1.04-.43h-2c-.39,0-.76.15-1.04.43-.28.28-.43.65-.43,1.04v1c0,.29-.24.53-.53.53s-.53-.24-.53-.53v-1c0-.67.26-1.31.74-1.79.48-.48,1.11-.74,1.79-.74h2c.67,0,1.31.26,1.79.74.48.48.74,1.11.74,1.79v1c0,.29-.24.53-.53.53Z"/>
    <path class="cls-1" d="m20,8.1H4c-.33,0-.6-.27-.6-.6s.27-.6.6-.6h16c.33,0,.6.27.6.6s-.27.6-.6.6Z"/>
  </g>
</svg>