<svg xmlns="http://www.w3.org/2000/svg" id="Outlines" viewBox="0 0 24 24"><defs><style>.cls-1{fill:#1b1b1b;stroke-width:0}</style></defs><g id="user-task"><path d="m17.7,11.65c-.86,0-1.66-.33-2.26-.94-.6-.61-.94-1.41-.94-2.26s.33-1.66.94-2.26c1.21-1.21,3.32-1.21,4.53,0,.6.6.94,1.41.94,2.26s-.33,1.66-.94,2.26-1.41.94-2.26.94Zm0-4.9c-.46,0-.88.18-1.2.5-.32.32-.5.76-.5,1.2s.18.88.5,1.2c.63.63,1.76.63,2.4,0,.32-.32.5-.75.5-1.2s-.18-.88-.5-1.2c-.32-.32-.75-.5-1.2-.5Z" class="cls-1"/><path d="m21.37,17.53c-.41,0-.75-.34-.75-.75v-1.22c0-.45-.18-.88-.5-1.2-.32-.32-.75-.5-1.2-.5h-2.45c-.46,0-.88.18-1.2.5-.32.32-.5.76-.5,1.2v1.22c0,.41-.34.75-.75.75s-.75-.34-.75-.75v-1.22c0-.85.33-1.66.94-2.26.6-.6,1.41-.94,2.26-.94h2.45c.85,0,1.66.33,2.26.94.61.61.94,1.41.94,2.26v1.22c0,.41-.34.75-.75.75Z" class="cls-1"/><path d="m11.82,8.95H3c-.41,0-.75-.34-.75-.75s.34-.75.75-.75h8.82c.41,0,.75.34.75.75s-.34.75-.75.75Z" class="cls-1"/><path d="m11.82,12.26H3c-.41,0-.75-.34-.75-.75s.34-.75.75-.75h8.82c.41,0,.75.34.75.75s-.34.75-.75.75Z" class="cls-1"/><path d="m11.82,15.57H3c-.41,0-.75-.34-.75-.75s.34-.75.75-.75h8.82c.41,0,.75.34.75.75s-.34.75-.75.75Z" class="cls-1"/></g></svg>