<?xml version="1.0" encoding="UTF-8"?>
<svg id="Outlines" xmlns="http://www.w3.org/2000/svg" viewBox="0 0 24 24">
  <defs>
    <style>
      .cls-1 {
        fill: #1b1b1b;
        stroke-width: 0px;
      }
    </style>
  </defs>
  <g id="ws-start">
    <path class="cls-1" d="m12,3C7.03,3,3,7.03,3,12s4.03,9,9,9,9-4.03,9-9S16.97,3,12,3Zm7.31,9c0,1.36-.38,2.63-1.03,3.72,0-.85-.02-1.26-.64-1.62-.27-.16-.47-.25-.64-.33-.36-.17-.61-.27-.92-.74l-.11-.17c-.34-.52-.59-.89-1.52-.74-1.85.29-1.98.62-2.06,1.16v.09c-.13.8-.16,1.07.18,1.42,1.25,1.32,2,2.26,2.23,2.81.07.17.2.57.25,1.03-.92.43-1.95.66-3.03.66-4.03,0-7.31-3.29-7.31-7.31,0-1.91.74-3.66,1.95-4.96.16.42.17.84.17,1.23,0,.33,0,.63.1.86.15.3.75.44,1.31.55.19.05.39.08.57.14.49.14.89.59,1.19.94.14.15.31.37.42.43.05-.03.21-.21.29-.49.06-.21.05-.4-.05-.52-.55-.65-.52-1.91-.35-2.37.27-.73,1.11-.68,1.72-.64.23.01.45.03.61,0,.62-.08.81-1.01.93-1.19.17-.24.56-.55.97-.83,2.79,1.04,4.79,3.71,4.79,6.85v.03Z"/>
  </g>
</svg>